<svg id="swau-logo" xmlns="http://www.w3.org/2000/svg" viewBox="0 0 316.8 89.15" class="h-12 lg:h-16" fill="currentColor"><g id="Layer_2" data-name="Layer 2"><g id="Layer_1-2" data-name="Layer 1"><path d="M316.8,30.75c-.35.07-.7.15-1.06.2a1.91,1.91,0,0,0-1.84,2c-.07,1.59-.2,3.18-.21,4.77,0,4.75,0,9.49,0,14.23-.9.44-1.35-.08-1.82-.66q-6.37-7.85-12.77-15.68c-.24-.29-.49-.57-.93-1.08,0,3.69,0,7.06,0,10.43,0,1,.1,2.07.16,3.1.11,1.87.53,2.35,2.37,2.71.86.16.86.16.86.94-3.79,0-7.57.05-11.36,0-1.62,0-2.67-1.19-3.52-2.43a49,49,0,0,1-3.14-4.94,3.59,3.59,0,0,0-4.27-2c0,2.26,0,4.51,0,6.77,0,1.18.87,1.47,1.86,1.63.5.07,1.26,0,.9,1h-8.76l-.2-.27c.28-.23.53-.63.83-.66,1.82-.23,2.34-.39,2.35-3,0-4.71,0-9.42,0-14.12,0-2.17-.16-2.3-2.22-2.8-.31-.08-.54-.47-.81-.72l.22-.48c3.82.13,7.65.1,11.44.43A4.66,4.66,0,0,1,289.28,34a5.71,5.71,0,0,1-2.18,6.15c-.56.43-1.19.78-1.89,1.23,1.86,3.12,3.64,6.23,6.25,8.74,1.12,1.07,2.52.85,3.84.39,1.11-.38,1.24-1.41,1.25-2.37.07-4.82.11-9.65.09-14.47,0-1.44-1.06-2.4-2.73-2.68-.68-.11-1.07-.28-.7-1.13,1.45,0,2.93,0,4.39,0a1.93,1.93,0,0,1,1.11.75q6.27,7.47,12.5,15c.27.33.57.64,1,1.15,0-1.9,0-3.56,0-5.21-.05-2.75-.08-5.5-.22-8.24-.08-1.68-.58-2.09-2.28-2.35-.54-.08-1.34,0-.88-1.15h7.94ZM279.17,41.06c.9,0,1.66,0,2.41,0,3.2-.18,5-2.54,4.6-6A4.71,4.71,0,0,0,280.46,31a1.32,1.32,0,0,0-1.29,1.42C279.16,35.27,279.17,38.1,279.17,41.06Z"></path><path d="M0,89.15V86.94H50.14l.22,2.21Z"></path><path d="M48.1,65.82V85.46H2.2V65.82ZM32.62,75.63a7.5,7.5,0,0,0-15,0,7.5,7.5,0,1,0,15,0Z"></path><path d="M42.52,56.75H39.83c0-.46-.06-.88-.06-1.3,0-3.55,0-7.1,0-10.65a3.61,3.61,0,0,0-.47-2,3.08,3.08,0,0,0-2-1.33,3.12,3.12,0,0,0-2,1.39A4.1,4.1,0,0,0,34.83,45c0,3.87,0,7.74,0,11.71H28.9V55.31c0-4.34,0-8.69,0-13a3.75,3.75,0,0,0-2.11-3.61,3.53,3.53,0,0,0-3.85.31,3.75,3.75,0,0,0-1.6,3.29c0,4.35,0,8.7,0,13.05v1.4H15.45c0-.4-.06-.82-.06-1.24,0-3.51,0-7,0-10.53a5.66,5.66,0,0,0-.2-1.65,2.44,2.44,0,0,0-2.39-2,2.67,2.67,0,0,0-2.2,2.24A7.54,7.54,0,0,0,10.52,45c0,3.86,0,7.73,0,11.7H7.7c0-.39-.06-.78-.06-1.17,0-6.22,0-12.44,0-18.67a1.33,1.33,0,0,1,1.08-1.52c2.55-.8,5.06-1.73,7.59-2.56a6.64,6.64,0,0,1,1.87-.3c4.52,0,9,0,13.55,0a11.73,11.73,0,0,1,3.24.65c2.29.71,4.55,1.49,6.79,2.32.38.14.88.64.88,1,0,6.62,0,13.25,0,19.87A2.09,2.09,0,0,1,42.52,56.75Z"></path><path d="M9.64,27.37C9,20.54,14.26,13.6,21.19,11.84a24.45,24.45,0,0,0,3.15-1.28,2,2,0,0,0-.6-2.25c-.89-.71-.61-2,.27-2.82a2.36,2.36,0,0,0,.71-1.31c.18-1.38.22-2.78.42-4.18.09,1.09.2,2.18.27,3.27s0,1.87,1.05,2.55c.92.58.74,1.84-.13,2.71a1.3,1.3,0,0,0,.39,2.33,54.87,54.87,0,0,1,6.33,2.73A15.14,15.14,0,0,1,40.72,26c0,.43,0,.86,0,1.42-1.78-.6-3.42-1.2-5.09-1.69a11.6,11.6,0,0,0-2.91-.5c-4.44,0-8.88.05-13.31,0a16.46,16.46,0,0,0-6.77,1.17C11.7,26.73,10.7,27,9.64,27.37Z"></path><path d="M44.18,57.77c.48-1.06.81-2,1.29-2.79a1.13,1.13,0,0,1,1.06-.08c.36.39.39,1.18.79,1.42.68.42.38.63.29,1.22a30.45,30.45,0,0,0-.07,4.6h2.62v2.25H.1V62.18H2.78c-.12-1.74-.24-3.33-.34-4.92a1.36,1.36,0,0,1,.07-.67c.15-.37.42-.69.56-1.07a1.11,1.11,0,0,1,1.65-.61,3.67,3.67,0,0,1,.94,2.86Zm-.06,4.33a21.6,21.6,0,0,0,0-2.56c0-.32-.48-.58-.74-.87-.28.27-.77.51-.81.81a20.65,20.65,0,0,0,0,2.62Zm-10.73-.05H35a19.61,19.61,0,0,0,0-2.44c0-.34-.44-.63-.67-.94-.31.29-.83.55-.88.88A15.91,15.91,0,0,0,33.39,62.05Zm-6,0H29a25.6,25.6,0,0,0,0-2.64c0-.28-.53-.76-.72-.72a1.21,1.21,0,0,0-.83.75A20.58,20.58,0,0,0,27.35,62.08Zm-1.45,0a19.91,19.91,0,0,0,0-2.46c-.05-.34-.43-.63-.66-1-.31.29-.83.55-.89.88a16.25,16.25,0,0,0,0,2.53Zm-6,0a19.22,19.22,0,0,0,0-2.53c0-.32-.48-.59-.75-.88-.28.31-.75.6-.8,1a16.77,16.77,0,0,0,0,2.46Zm-9.11,0a18.38,18.38,0,0,0,0-2.49c0-.33-.46-.62-.7-.92-.3.3-.8.56-.85.9a17.36,17.36,0,0,0,0,2.51Zm27.33,0a20.37,20.37,0,0,0,0-2.62,1.23,1.23,0,0,0-.83-.75c-.18,0-.68.43-.71.71a23.61,23.61,0,0,0,0,2.66Zm-21.28,0a23.56,23.56,0,0,0,0-2.67,1,1,0,0,0-.76-.68,1,1,0,0,0-.73.7,23.14,23.14,0,0,0,0,2.65Zm-4.6,0h1.57a19.4,19.4,0,0,0,0-2.54c0-.32-.5-.58-.76-.86-.26.28-.71.55-.75.86A21.32,21.32,0,0,0,12.2,62.07Zm-4.49,0a16.55,16.55,0,0,0,0-2.46c-.06-.35-.52-.64-.79-1-.25.3-.68.58-.72.9a21,21,0,0,0,0,2.52Zm33.37,0a23.92,23.92,0,0,0,0-2.7c0-.27-.46-.62-.77-.69s-.66.37-.69.6c-.08.92,0,1.86,0,2.79Zm-9.1,0a18.73,18.73,0,0,0,0-2.62c0-.3-.54-.53-.83-.8-.23.28-.62.54-.65.83a24.74,24.74,0,0,0,0,2.59Zm-9.1,0a18.56,18.56,0,0,0,0-2.61c0-.31-.53-.55-.81-.81-.24.26-.65.51-.69.8a25.28,25.28,0,0,0,0,2.62Z"></path><path d="M6.41,35.68V29.52c3-1,6.19-2.13,9.36-3.19a3.45,3.45,0,0,1,1.07-.09c5.39,0,10.78,0,16.18,0a7.16,7.16,0,0,1,2.1.35c3,1,5.88,2,8.72,3v6.38c-.32-1.35-1.5-1.33-2.43-1.65-.64-.22-1.3-.39-1.92-.67a26.41,26.41,0,0,0-13.07-2.1,11.19,11.19,0,0,1-1.92,0A31.35,31.35,0,0,0,9,34.18a8,8,0,0,0-1,.38C7.48,34.87,7,35.26,6.41,35.68Z"></path><path d="M166.59,29.83c2.94,0,5.41,0,7.88,0,.24,0,.47.27.7.42-.21.23-.39.58-.65.66-1.84.54-1.87.56-1.34,2.35,1.32,4.42,2.64,8.83,4.06,13.62.31-.88.52-1.44.7-2,1.5-4.58,3-9.16,4.49-13.73a4.13,4.13,0,0,1,.79-1c.31.34.77.63.92,1,1.72,4.79,3.39,9.61,5.07,14.42l.43,1.18a7.24,7.24,0,0,0,.35-.71c1.2-4.29,2.43-8.58,3.58-12.88.42-1.55.14-1.83-1.44-2.24-.32-.08-.57-.46-.85-.7a2.69,2.69,0,0,1,.95-.4c2.11,0,4.23,0,6.8,0-.41.54-.6,1.05-.84,1.07-1.88.15-2.51,1.52-3,3-1.69,5.31-3.35,10.63-5,15.94a13.52,13.52,0,0,1-.49,1.6c-.14.31-.52.79-.68.75a1.35,1.35,0,0,1-.86-.72c-1.51-4.19-3-8.41-4.46-12.61-.37-1-.74-2.08-1.24-3.46-.94,2.87-1.78,5.41-2.61,8s-1.72,5.3-2.63,7.93c-.13.37-.54.65-.82,1-.28-.32-.7-.59-.82-1q-2.69-8.61-5.31-17.23c-.47-1.52-1-3-2.93-3.19C167.13,30.85,167,30.37,166.59,29.83Z"></path><path d="M57.89,55.7H314.62V56H57.9Z"></path><path d="M150.49,30.26c-.31.23-.6.59-1,.66-1.67.36-2,.6-2,2.27,0,2,0,4.05,0,6.14h11.31c0-2.35,0-4.71,0-7.08,0-1-.94-1.17-1.75-1.28-.57-.08-1.19-.09-.87-1h8.65l.25.23c-.27.25-.5.67-.81.74-2.14.49-2.35.69-2.36,2.85q0,7.11,0,14.23c0,2.14.18,2.3,2.25,2.8.33.08.59.45.88.68l-.23.31H156l-.24-.29c.28-.24.52-.62.84-.69,2.24-.51,2.39-.65,2.41-2.92s0-4.45,0-6.77H147.6c0,2.66,0,5.32,0,8,0,1.17.83,1.5,1.83,1.64.51.07,1.38-.09,1,1h-8.74c-.27-.56-.13-.83.58-1,2.14-.46,2.24-.53,2.25-2.77q.06-7.24,0-14.48c0-2-.23-2.18-2.19-2.57-.3-.07-.55-.4-.83-.61.3-.16.59-.47.89-.47,2.59,0,5.19,0,7.78,0Z"></path><path d="M72.86,41c0-8.42,7.66-13.88,15.37-11,4.56,1.71,7.2,6,6.93,11.42-.51,10.09-10.75,13.09-17,9.37A10.85,10.85,0,0,1,72.86,41Zm18.8.42c0-3.22-.6-6.28-3-8.68a6.71,6.71,0,0,0-11,1.6,14,14,0,0,0-1.3,5.14c-.22,3.52.56,6.83,3.16,9.45a6.64,6.64,0,0,0,10.88-1.6A12.2,12.2,0,0,0,91.66,41.43Z"></path><path d="M206.41,39.88a50.62,50.62,0,0,0,5.23-.35c.5-.09,1-.9,1.28-1.49s.4-1,1.19-.74v6.29c-.75.31-1.05,0-1.16-.7a1.85,1.85,0,0,0-2.08-1.7h-4.31c0,2.71-.07,5.36.06,8,0,.43.86,1.12,1.38,1.19a31.34,31.34,0,0,0,4.65.15,3.26,3.26,0,0,0,2.85-1.89c.39-.74.75-1.49,1.14-2.26.74-.16,1,.15.86.9-.32,1.47-.65,2.95-1,4.47H200.2l-.23-.24a3.76,3.76,0,0,1,.74-.7,2.86,2.86,0,0,1,.94-.18,1.72,1.72,0,0,0,1.72-1.89c0-1.8,0-3.59,0-5.38,0-3.19,0-6.38,0-9.57,0-2.23-.3-2.77-2.24-2.9-.22,0-.42-.35-.63-.53.2-.18.4-.51.61-.51,4.79,0,9.57,0,14.52,0,.08,1.65.17,3.23.25,4.8l-.3.28a3.76,3.76,0,0,1-.88-.74,5.77,5.77,0,0,1-.44-1.23,2.44,2.44,0,0,0-2.4-1.81c-1.55-.05-3.11-.1-4.66-.07-.28,0-.79.42-.79.65C206.39,34.36,206.41,37,206.41,39.88Z"></path><path d="M260.65,39.67h4.62a1.73,1.73,0,0,0,1.91-1.58c.11-.62.31-1.1,1.15-.79V44c-.53-.46-1-.69-1.09-1-.24-1.45-1.17-1.86-2.47-1.86h-4c0,2.68-.05,5.3,0,7.91a1.37,1.37,0,0,0,1.43,1.35,49.06,49.06,0,0,0,5,0c2-.17,2.62-1.88,3.31-3.41.27-.6.54-.95,1.34-.43-.36,1.67-.73,3.37-1.1,5.13H254c.41-.46.59-.78.86-.92a3.5,3.5,0,0,1,1-.2,1.69,1.69,0,0,0,1.65-1.83c0-2.11.08-4.22.08-6.33,0-3.15,0-6.3-.09-9.45,0-1.6-.3-1.76-1.88-2.07a3.24,3.24,0,0,1-1-.6c.33-.17.66-.49,1-.49,4.67,0,9.34,0,14.15,0,.09,1.52.2,3,.24,4.44,0,.18-.28.48-.47.51s-.41-.2-.6-.34-.05-.15-.08-.22c-1.09-3-1.36-3.19-4.59-3.19a23.09,23.09,0,0,0-2.76,0c-.34,0-.92.47-.93.73C260.62,34.41,260.65,37,260.65,39.67Z"></path><path d="M95.61,29.83c2.63,0,5.26,0,7.9,0,.22,0,.45.29.67.44-.18.2-.33.52-.56.59-2.26.66-2.3.67-2.29,3,0,3.31,0,6.62.12,9.92a9.4,9.4,0,0,0,.76,3.11,5.4,5.4,0,0,0,5.46,3.52A5.24,5.24,0,0,0,113,46.87a12.38,12.38,0,0,0,.9-3.81c.12-3.11.08-6.22,0-9.33-.06-2.09-.45-2.4-2.5-2.81-.3-.06-.55-.39-.82-.6.29-.16.58-.46.88-.47q3.16-.06,6.35,0c.27,0,.54.28.81.42-.26.23-.49.58-.78.65-1.78.41-2.13.75-2.19,2.56-.1,2.78-.11,5.57-.22,8.36a25.57,25.57,0,0,1-.44,3.91c-1.11,5.44-5.31,7.12-9.94,6.41-4.37-.67-6.58-3.71-6.63-8.84,0-3.35,0-6.7-.06-10,0-1.77-.28-2-2-2.35-.35-.07-.63-.44-1-.67Z"></path><path d="M66.55,73.86c1.53-1.06,1.53-1.06.9-2.85-.8-2.24-.8-2.24-3.18-2.24s-2.36,0-3.12,2.28c-.07.23-.14.46-.23.68-.38.92-.1,1.45.91,1.57a3.18,3.18,0,0,1,.54.19c-.51.69-4,.78-5.1.05C60,73,60,70.63,60.78,68.83c1.24-2.85,2.3-5.77,3.47-8.64a4.52,4.52,0,0,1,.76-1,4.48,4.48,0,0,1,.68,1c1.39,3.77,2.73,7.56,4.12,11.33a2.43,2.43,0,0,0,3.4,1.64,1.51,1.51,0,0,0,.89-1c.07-3.54.05-7.09.05-10.63A1.19,1.19,0,0,0,73,60.2a1.05,1.05,0,0,1-.7-.55c3.48,0,7-.67,10.33.39a5.62,5.62,0,0,1,4.07,4.86,7.3,7.3,0,0,1-2.35,7,9.28,9.28,0,0,1-6,2.07c-3.67.08-7.34,0-11,0A4.64,4.64,0,0,1,66.55,73.86Zm9.61-7.55h.07c0,1.75,0,3.5,0,5.25,0,1,.61,1.41,1.51,1.55a5.51,5.51,0,0,0,6.1-3.18,7.23,7.23,0,0,0-.37-7.3c-1.35-2-3.52-2.41-5.8-2.37-1,0-1.54.45-1.52,1.52C76.19,63.29,76.16,64.8,76.16,66.31ZM62.34,67.65h3.93c-.62-1.82-1.21-3.52-1.9-5.52Z"></path><path d="M232,34.67c-.89.58-1.08,0-1.3-.58-.58-1.56-1.24-3.05-3.12-3.45a3.71,3.71,0,0,0-4.24,1.67,3.92,3.92,0,0,0,.8,4.81,33.72,33.72,0,0,0,3.61,2.33,28.18,28.18,0,0,1,2.92,1.84,5.92,5.92,0,0,1-1.17,10.16,9.74,9.74,0,0,1-8.57-.12,1.55,1.55,0,0,1-.68-1c-.25-1.21-.38-2.44-.62-3.65-.15-.76.15-1,.76-1,.63,1.19,1.17,2.39,1.89,3.47a4.46,4.46,0,0,0,4.25,1.94,3.51,3.51,0,0,0,3.32-2.34A3.79,3.79,0,0,0,229,44.3a26.25,26.25,0,0,0-3.24-2.24c-1.09-.72-2.28-1.32-3.31-2.13A5.49,5.49,0,0,1,220.36,34a5.81,5.81,0,0,1,4.57-4.41,10.29,10.29,0,0,1,5.89.36,1.33,1.33,0,0,1,.72.89C231.76,32.08,231.87,33.35,232,34.67Z"></path><path d="M69.56,35a3.93,3.93,0,0,1-.88-.78c-.34-.57-.51-1.25-.84-1.83a3.59,3.59,0,0,0-3.72-1.87A3.28,3.28,0,0,0,61,32.81,3.64,3.64,0,0,0,61.92,37a34.17,34.17,0,0,0,3.78,2.48c.94.6,1.94,1.11,2.83,1.78,3.85,2.87,3,8.56-1.6,10.42a9.91,9.91,0,0,1-8-.31,1.39,1.39,0,0,1-.67-.85c-.28-1.29-.44-2.59-.69-3.88-.16-.79.22-1,.77-1a37.28,37.28,0,0,0,1.9,3.5A4.45,4.45,0,0,0,64.49,51a3.47,3.47,0,0,0,3.28-2.38,3.79,3.79,0,0,0-.89-4.4A32,32,0,0,0,63.64,42c-1.16-.77-2.41-1.43-3.48-2.3a5.36,5.36,0,0,1-1.9-5.8,5.8,5.8,0,0,1,4.37-4.31,10.16,10.16,0,0,1,6.12.34,1.36,1.36,0,0,1,.7.92c.21,1.25.31,2.52.45,3.78Z"></path><path d="M120.52,34.93l.39-5.08h18.27l.42,5.07c-.7.27-1.1.2-1.24-.58a8.09,8.09,0,0,0-.51-1.58,2.35,2.35,0,0,0-2.17-1.62c-1.31,0-2.62,0-4.05,0,0,.37-.08.75-.08,1.13q0,7.79,0,15.55c0,2.3.25,2.58,2.5,2.95.57.09,1.19.07.82,1h-9.54l-.2-.3c.27-.22.52-.57.82-.64,2.5-.55,2.61-.6,2.63-3.1,0-5.5,0-11,0-16.78a42.57,42.57,0,0,0-4.91.41c-1.39.28-1.49,1.73-1.85,2.84C121.63,34.79,121.48,35.37,120.52,34.93Z"></path><path d="M241.92,31c-1.64.1-3.16.09-4.64.31s-1.73,1.69-2.11,2.89c-.2.62-.35,1.18-1.32.83.13-1.67.27-3.4.41-5.14h18.25c.15,1.7.29,3.35.44,5.06-.66.29-1.1.28-1.25-.59a7.73,7.73,0,0,0-.53-1.58,2.24,2.24,0,0,0-2.06-1.57c-1.35,0-2.7,0-4.21,0,0,.31,0,.69,0,1.07q0,7.72,0,15.44c0,2.45.21,2.68,2.59,3.14.33.06.6.41.9.62l-.21.34h-9.43l-.22-.26c.25-.23.46-.56.76-.68s.93,0,1.27-.27a5.17,5.17,0,0,0,1.23-1.28,1.74,1.74,0,0,0,.16-.93C241.92,42.64,241.92,36.94,241.92,31Z"></path><path d="M257.92,67.85v4a1.31,1.31,0,0,0,1.24,1.46,2.65,2.65,0,0,1,.73.4l-.11.27H254l-.12-.22c.22-.15.44-.41.67-.44,1.06-.13,1.39-.74,1.38-1.72,0-3.19,0-6.38,0-9.57,0-1.07-.26-1.79-1.47-1.87-.18,0-.34-.26-.52-.4l.12-.41c2.69.13,5.38.14,8.05.43a2.9,2.9,0,0,1,2.5,2.57,3.77,3.77,0,0,1-1.27,3.76,14.2,14.2,0,0,1-1.47,1c1.53,2.22,2.6,4.76,5,6.3.15.1.2.36.3.55-.19.09-.39.25-.58.24a4.3,4.3,0,0,1-3.7-1.83c-.75-1.13-1.53-2.24-2.18-3.43A2.21,2.21,0,0,0,257.92,67.85Zm-.07-1c.74,0,1.34.05,1.92,0a3.2,3.2,0,0,0,2.78-3.77,3.15,3.15,0,0,0-3.47-2.86c-.82.06-1.23.43-1.23,1.27C257.86,63.25,257.85,65,257.85,66.88Z"></path><path d="M127.77,70.55c0-3.11,0-5.93,0-8.74a1.51,1.51,0,0,0-1.44-1.61,3.4,3.4,0,0,1-.8-.31l.08-.31h5.23l.12.21c-.2.13-.39.35-.62.39A1.49,1.49,0,0,0,129,61.84c0,3.59-.11,7.17-.16,10.75a4.56,4.56,0,0,1-.27,1.77,6.4,6.4,0,0,1-1-.85q-4.07-4.94-8.1-9.91l-.82-1v7.19c0,.16,0,.32,0,.48.12,2.4.12,2.4,2.17,3.25-.46.59-4.22.71-5.25.17,0-.08,0-.22,0-.22,1.75-.29,2-1.5,1.94-3,0-2.43.05-4.86.06-7.29,0-2.17-.11-2.3-2.17-3.09-.14,0-.22-.26-.35-.42a3.69,3.69,0,0,1,4.54,1.06Z"></path><path d="M213.37,70.45c0-3.07,0-6,0-8.85,0-.83-.59-1.25-1.39-1.4a4.09,4.09,0,0,1-.84-.36l.1-.3h5.59c-.44.35-.62.6-.83.64a1.54,1.54,0,0,0-1.4,1.75c0,3.67-.1,7.33-.15,11a3.78,3.78,0,0,1-.2,1.38c-2-1.6-3.4-3.69-5-5.59s-3.16-3.86-5-5.75c0,.49,0,1,0,1.46,0,2.24.07,4.47.08,6.7,0,1.22.32,2.12,1.74,2.23.18,0,.35.24.42.61h-5.51c.39-.32.58-.59.8-.63a1.58,1.58,0,0,0,1.38-1.69q.06-4.55.1-9.08a2.11,2.11,0,0,0-1.87-2.37,1,1,0,0,1-.58-.5c1.87-.33,3.46-.46,4.81,1.4,2.21,3,4.75,5.8,7.16,8.67C212.91,70,213.1,70.15,213.37,70.45Z"></path><path d="M241,73.79c.21-.16.42-.44.65-.45,1.33-.08,1.63-.87,1.61-2q0-4.6,0-9.21c0-1.1-.24-1.88-1.52-1.93a2.46,2.46,0,0,1-.63-.21l.27-.39h10c.08.84.17,1.66.2,2.49a2.12,2.12,0,0,1-.26.71,5.59,5.59,0,0,1-.6-.59c-.4-.56-.69-1.54-1.17-1.64a19,19,0,0,0-3.92-.15c-.11,0-.31.43-.31.66,0,1.16,0,2.31,0,3.47V66a11.37,11.37,0,0,0,3-.06,7.71,7.71,0,0,0,2.1-1.56v4.43c-.31-.19-.65-.28-.68-.43-.23-1.34-1.25-1.38-2.27-1.41-.67,0-1.34,0-2.07,0,0,1.81-.06,3.47,0,5.13a1.43,1.43,0,0,0,.93,1,9,9,0,0,0,3.43,0c.74-.21,1.28-1.16,1.89-1.79.25-.27.45-.58.67-.87l.39.19c-.22,1-.41,2.06-.68,3.08a.77.77,0,0,1-.59.42c-3.43,0-6.86,0-10.29,0Z"></path><path d="M114.18,70.57s0,.07,0,.11c-.28,3.35-.28,3.35-3.6,3.35-2.27,0-4.55,0-6.82,0a7.38,7.38,0,0,1-1.19-.2c.15-.26.18-.37.23-.39,2.07-.73,2.09-.73,2.09-3,0-2.83-.06-5.66,0-8.49,0-1.08-.32-1.76-1.51-1.81-.17,0-.32-.24-.74-.57H113l.22,3.1-.35.18a3.28,3.28,0,0,1-.56-.83,2.22,2.22,0,0,0-2.47-1.76c-3,0-3-.06-3,3V66a23.36,23.36,0,0,1,2.91,0c1.29.17,1.25-1.18,2.13-1.88v4.58c-.22-.1-.55-.16-.57-.28-.25-1.45-1.33-1.48-2.45-1.48h-1.92c0,1.77,0,3.39,0,5a1.13,1.13,0,0,0,1.23,1.19c.76,0,1.51,0,2.27,0a2.68,2.68,0,0,0,2.76-1.86,6.41,6.41,0,0,1,.65-1Z"></path><path d="M184.66,59.55h5.69l.12.26a3.26,3.26,0,0,1-.79.4,1.22,1.22,0,0,0-1.14,1.3c0,2.67,0,5.35.22,8a3.73,3.73,0,0,0,3.79,3.6,3.55,3.55,0,0,0,3.92-3.27,60.86,60.86,0,0,0,.18-8.44c0-.39-.8-.8-1.27-1.14a4.21,4.21,0,0,0-.89-.39l.09-.3h5.66c-.45.33-.65.58-.88.62A1.51,1.51,0,0,0,198,61.84c0,1.75-.06,3.5-.13,5.26a17.09,17.09,0,0,1-.2,2.37c-.63,3.72-3.21,5.49-6.91,4.79-2.52-.48-4-2.33-4.14-5.27-.08-2.19-.06-4.38,0-6.58,0-1.17-.09-2.19-1.62-2.24a.4.4,0,0,1-.26-.2A1.35,1.35,0,0,1,184.66,59.55Z"></path><path d="M309.75,74h-6.27l-.12-.25a2.8,2.8,0,0,1,.8-.42c1-.13,1.35-.71,1.42-1.7A9.47,9.47,0,0,0,304,65a28.71,28.71,0,0,1-1.81-3.09,2.75,2.75,0,0,0-2-1.69c-.17,0-.3-.32-.58-.65h5.61l.13.28-1.58.9c1.07,1.89,2.15,3.77,3.35,5.9,1-1.9,1.87-3.6,2.73-5.32.29-.58,0-.87-.58-1a5.75,5.75,0,0,1-.88-.39l.1-.3h4.89l.12.21-.59.44a15.2,15.2,0,0,0-2.06,1.65c-.55.61-.84,1.45-1.33,2.12a10.57,10.57,0,0,0-1.94,7.43c.09,1.11.34,1.84,1.58,1.92.25,0,.49.24.74.38Z"></path><path d="M141.5,73.88h-6.76c.43-.33.56-.49.71-.52,1.84-.45,1.84-.45,1.84-2.27q0-4.71,0-9.44c0-.39,0-.78-.07-1.41-1.16.11-2.41-.08-3.28.4s-1.08,1.6-1.6,2.44L132,63c.05-1,.08-2,.19-3,0-.19.43-.46.66-.47,3.79,0,7.57,0,11.51,0-.18,1.24.55,2.42-.16,3.8-1.58-3.12-1.63-3.14-4.73-2.85-.05.06-.14.12-.15.18l0,11.35a1.19,1.19,0,0,0,1.12,1.31c.37.06.72.18,1.08.27Z"></path><path d="M176.16,59.51c.08,1,.17,2,.23,2.92,0,.15-.14.31-.21.47-.19-.1-.38-.19-.55-.3s0-.15-.07-.23c-.75-2-.85-2.07-3-2.06h-1.34c0,.49-.07.9-.07,1.32q0,4.31,0,8.62c0,2.51,0,2.51,2.25,3.29-.44.61-5.39.75-6.68,0a9,9,0,0,1,1.08-.3,1.35,1.35,0,0,0,1.34-1.51c0-3.67,0-7.34,0-11a2.16,2.16,0,0,0-.17-.53c-1.06.11-2.31-.07-3.19.42s-1.08,1.6-1.6,2.44l-.34-.13.27-3.45Z"></path><path d="M295.16,74h-6.3l-.16-.29a2.8,2.8,0,0,1,.82-.39,1.42,1.42,0,0,0,1.41-1.58c0-3.66,0-7.33,0-11a2.76,2.76,0,0,0-.17-.53c-1.06.11-2.31-.07-3.19.42s-1.09,1.59-1.61,2.44l-.34-.14c.09-1.12.18-2.25.27-3.44H298a17.27,17.27,0,0,1,.05,3.69c-.76-1.1-1.16-2.22-1.93-2.64s-2-.23-3.2-.31V71.14c0,1.78,0,1.77,1.77,2.22.21,0,.39.27.58.42Z"></path><path d="M225,59.53h5.39l.12.28a4,4,0,0,1-.79.43c-.55.18-.79.42-.56,1,1.22,3.19,2.4,6.39,3.59,9.59l.33,0c1.16-3.17,2.33-6.35,3.47-9.53.24-.67-.16-.93-.74-1.09a6.88,6.88,0,0,1-.92-.42l.13-.32h5.09c-.17.29-.25.6-.37.62-1.51.16-2,1.33-2.42,2.49-1.42,3.55-2.82,7.1-4.27,10.64a4.39,4.39,0,0,1-.79,1,5.53,5.53,0,0,1-.67-1c-1.39-3.6-2.76-7.21-4.14-10.81-.42-1.1-.82-2.2-2.24-2.34-.08,0-.17-.14-.22-.24S225,59.75,225,59.53Z"></path><path d="M96.75,59.52h5.13c-.25.32-.36.63-.52.65-1.28.17-1.78,1.11-2.19,2.13-1.45,3.62-2.88,7.25-4.35,10.87a6,6,0,0,1-.75,1.09,4.82,4.82,0,0,1-.78-1.06c-1.4-3.6-2.76-7.21-4.14-10.82-.4-1.06-.82-2.11-2.2-2.23-.07,0-.16-.15-.21-.25s0-.15,0-.33h5.37l.12.22a2.88,2.88,0,0,1-.71.42c-.64.16-.87.51-.63,1.13,1.2,3.19,2.4,6.38,3.88,9.58,1.16-3.17,2.33-6.34,3.47-9.51.23-.63-.09-1-.7-1.12a5.92,5.92,0,0,1-1-.42Z"></path><path d="M275.86,62.91l-.61-.8a7.77,7.77,0,0,0-1.32-1.78,2.46,2.46,0,0,0-3.32.56,2.6,2.6,0,0,0,.35,3.38c.78.65,1.78,1,2.6,1.68,1,.78,2.29,1.5,2.87,2.56,1.36,2.49-.55,5.45-3.53,5.8a10.16,10.16,0,0,1-1.56,0c-2.57-.08-3.65-1.32-3.38-3.89,0-.15.22-.43.27-.42a1,1,0,0,1,.53.33,18.06,18.06,0,0,0,1.16,2.07,3.06,3.06,0,0,0,3.69.81,2.47,2.47,0,0,0,1.21-3,3.68,3.68,0,0,0-1.21-1.68c-.94-.72-2-1.25-3-1.9-1.85-1.21-2.57-2.76-2.14-4.52s2-2.86,4.14-3C275.55,58.93,276.09,59.47,275.86,62.91Z"></path><path d="M161.77,63.07c-.34-.43-.56-.67-.74-.93a8.31,8.31,0,0,0-1.2-1.73,2.47,2.47,0,0,0-3,3.91,36.46,36.46,0,0,0,3.34,2.06,4.37,4.37,0,0,1,2.44,3.21,4.23,4.23,0,0,1-3.79,4.68,8.25,8.25,0,0,1-1.79,0c-2.49-.14-3.54-1.39-3.26-3.88,0-.15.17-.29.26-.44.18.11.42.19.52.35a18.88,18.88,0,0,0,1.17,2.06,3.09,3.09,0,0,0,3.59.85,2.41,2.41,0,0,0,1.35-2.78,3.34,3.34,0,0,0-1.08-1.75,33.71,33.71,0,0,0-3.13-2q-3-1.91-2.17-4.73c.45-1.64,2-2.72,4.13-2.87C161.23,59,162.12,59.88,161.77,63.07Z"></path><path d="M284.25,59.77c-.19.15-.38.4-.59.41-1.12.08-1.49.71-1.48,1.75,0,3.26,0,6.52,0,9.78,0,1,.36,1.5,1.34,1.61.25,0,.48.27.61.67h-5.89l-.12-.26a2.67,2.67,0,0,1,.8-.42,1.3,1.3,0,0,0,1.23-1.46c0-3.31,0-6.61,0-9.91,0-1-.33-1.67-1.46-1.76-.2,0-.4-.25-.48-.64h5.89Z"></path><path d="M152.22,73.52c-1.07.69-5.49.66-6.18.13,0-.07.05-.19.09-.2,1.87-.62,1.87-.62,1.88-2.65,0-2.91,0-5.82,0-8.73,0-1-.27-1.8-1.48-1.89-.2,0-.38-.28-.44-.65h5.82l.13.26a3,3,0,0,1-.78.42A1.3,1.3,0,0,0,150,61.65c0,3.43,0,6.85,0,10.28C150,73.33,151.19,73.16,152.22,73.52Z"></path><path d="M224.11,74H217.9l-.14-.21c.21-.16.41-.44.63-.46,1.13-.09,1.47-.8,1.47-1.78,0-3.18,0-6.37,0-9.55,0-1-.36-1.77-1.56-1.83-.19,0-.38-.23-.48-.6h6.23c-.44.32-.64.59-.87.61-1.06.13-1.38.75-1.37,1.73,0,3.15,0,6.29,0,9.44,0,1.09.19,1.88,1.47,2C223.49,73.37,223.66,73.64,224.11,74Z"></path><path d="M31.51,75.6A6.38,6.38,0,1,1,25,69.28,6.33,6.33,0,0,1,31.51,75.6Zm-10,3.69.44.43c1.61-.74,3.18-2,3.58-3.53A7.53,7.53,0,0,0,25,70.42a15.7,15.7,0,0,0-.38,4.19,2.78,2.78,0,0,1-1,2.4C22.85,77.7,22.22,78.53,21.52,79.29Z"></path></g></g></svg>